<svg width="36" height="36" fill="none" xmlns="http://www.w3.org/2000/svg"><mask id="a" maskUnits="userSpaceOnUse" x="0" y="0" width="36" height="36"><g clip-path="url(#clip0)"><path d="M29.872 19.542c-.581-.735-.415-1.062 0-1.719.008-.008 4.813-6.646 5.307-8.898l.003-.002c.246-.82 0-1.423-1.189-1.423h-3.936c-1.002 0-1.464.518-1.711 1.097 0 0-2.005 4.796-4.84 7.906-.915.898-1.337 1.186-1.837 1.186-.246 0-.628-.288-.628-1.108V8.924c0-.984-.281-1.424-1.11-1.424h-6.19c-.628 0-1.002.459-1.002.886 0 .934 1.418 1.148 1.565 3.773v5.696c0 1.247-.226 1.477-.729 1.477-1.338 0-4.585-4.817-6.51-10.329-.389-1.07-.768-1.502-1.778-1.502H1.35C.226 7.502 0 8.02 0 8.598c0 1.023 1.338 6.11 6.222 12.83 3.255 4.587 7.839 7.072 12.009 7.072 2.506 0 2.813-.552 2.813-1.502 0-4.383-.227-4.797 1.029-4.797.581 0 1.584.288 3.924 2.501 2.674 2.623 3.113 3.798 4.61 3.798h3.937c1.122 0 1.69-.552 1.363-1.641-.748-2.29-5.806-7.002-6.034-7.317z" fill="#000"/></g></mask><g mask="url(#a)"><path fill="#fff" d="M-5-4h47v40H-5z"/></g><defs><clipPath id="clip0"><path fill="#fff" d="M0 0h36v36H0z"/></clipPath></defs></svg>